<?xml version="1.0" encoding="utf-8"?>
<!-- Generator: Adobe Illustrator 16.0.0, SVG Export Plug-In . SVG Version: 6.00 Build 0)  -->
<!DOCTYPE svg PUBLIC "-//W3C//DTD SVG 1.1//EN" "http://www.w3.org/Graphics/SVG/1.1/DTD/svg11.dtd">
<svg version="1.1" id="Layer_1" xmlns="http://www.w3.org/2000/svg" xmlns:xlink="http://www.w3.org/1999/xlink" x="0px" y="0px"
	 width="187px" height="48px" viewBox="0 -0.12 187 48" enable-background="new 0 -0.12 187 48" xml:space="preserve">
<g>
	<path fill="#FFFFFF" d="M182.914,42.168c1.025,0,1.508,0.763,1.369,1.666c-0.145,0.937-0.852,1.653-1.879,1.653
		c-1.025,0-1.514-0.717-1.37-1.653C181.171,42.931,181.885,42.168,182.914,42.168 M183.26,39.897c-2.289,0-4.508,1.422-4.892,3.937
		c-0.388,2.517,1.411,3.926,3.688,3.926c2.291,0,4.508-1.425,4.892-3.926C187.332,41.319,185.55,39.897,183.26,39.897
		 M176.896,42.295h1.43l0.33-2.155h-1.43l0.338-2.213h-2.525l-0.341,2.213h-0.819l-0.329,2.155h0.819l-0.801,5.22h2.529
		L176.896,42.295z M167.812,40.142h-2.526l-1.127,7.373h2.524l0.586-3.824c0.141-0.92,0.553-1.709,1.58-1.709
		c1.25,0,0.949,1.235,0.842,1.938l-0.551,3.595h2.527l0.697-4.556c0.275-1.812-0.295-3.062-2.213-3.062
		c-0.982,0-1.738,0.302-2.457,1.192h-0.028L167.812,40.142z M163.544,43.992c0.386-2.515-0.804-4.095-3.274-4.095
		c-2.317,0-4.168,1.478-4.545,3.937c-0.39,2.544,1.162,3.926,3.522,3.926c1.624,0,3.342-0.792,4.01-2.53h-2.428
		c-0.354,0.488-0.771,0.674-1.312,0.674c-1.043,0-1.496-0.575-1.332-1.639h5.316L163.544,43.992z M158.458,42.757
		c0.269-0.763,0.938-1.166,1.677-1.166c0.682,0,1.235,0.461,1.252,1.166H158.458z M154.546,35.842c-0.776,0-1.519,0.662-1.642,1.466
		c-0.123,0.805,0.414,1.465,1.191,1.465c0.776,0,1.518-0.66,1.641-1.465C155.861,36.504,155.324,35.842,154.546,35.842
		 M155.15,40.142h-2.525l-1.127,7.373h2.523L155.15,40.142z M141.42,40.142h-2.525l-1.129,7.373h2.526l0.539-3.521
		c0.126-0.818,0.317-2.07,1.44-2.07s0.934,1.252,0.81,2.07l-0.539,3.521h2.524l0.539-3.521c0.137-0.876,0.351-2.012,1.517-2.012
		c1.069,0,0.851,1.25,0.733,2.012l-0.539,3.521h2.526l0.72-4.699c0.26-1.695-0.178-2.918-1.983-2.918
		c-0.972,0-2.003,0.487-2.631,1.408c-0.364-0.979-1.187-1.408-2.214-1.408c-0.916,0-1.705,0.345-2.428,1.166h-0.027L141.42,40.142z
		 M136.623,35.842c-0.777,0-1.518,0.662-1.641,1.466c-0.123,0.805,0.414,1.465,1.19,1.465c0.778,0,1.517-0.66,1.642-1.465
		C137.936,36.504,137.4,35.842,136.623,35.842 M137.229,40.142h-2.527l-1.127,7.373h2.525L137.229,40.142z M127.843,40.142h-2.831
		l2.605,7.373h1.609l4.85-7.373h-2.831l-2.272,3.778L127.843,40.142z M120.314,42.168c1.026,0,1.508,0.763,1.369,1.666
		c-0.145,0.937-0.851,1.653-1.877,1.653c-1.029,0-1.516-0.717-1.373-1.653C118.574,42.931,119.287,42.168,120.314,42.168
		 M120.662,39.897c-2.291,0-4.51,1.422-4.893,3.937c-0.386,2.517,1.412,3.926,3.689,3.926c2.29,0,4.507-1.425,4.891-3.926
		C124.734,41.319,122.953,39.897,120.662,39.897 M105.658,40.142h-2.525l-1.129,7.373h2.525l0.539-3.521
		c0.125-0.818,0.316-2.07,1.441-2.07c1.123,0,0.932,1.252,0.809,2.07l-0.539,3.521h2.525l0.541-3.521
		c0.133-0.876,0.35-2.012,1.514-2.012c1.07,0,0.852,1.25,0.732,2.012l-0.537,3.521h2.526l0.721-4.699
		c0.257-1.695-0.179-2.918-1.985-2.918c-0.971,0-2.004,0.487-2.631,1.408c-0.362-0.979-1.187-1.408-2.213-1.408
		c-0.916,0-1.707,0.345-2.428,1.166h-0.027L105.658,40.142z M93.703,40.142h-2.527l-1.128,7.373h2.527l0.583-3.824
		c0.142-0.92,0.554-1.709,1.582-1.709c1.249,0,0.949,1.235,0.841,1.938l-0.549,3.595h2.526l0.697-4.556
		c0.278-1.812-0.296-3.062-2.211-3.062c-0.986,0-1.74,0.302-2.46,1.192h-0.027L93.703,40.142z M89.435,43.992
		c0.385-2.515-0.803-4.095-3.274-4.095c-2.318,0-4.169,1.478-4.545,3.937c-0.39,2.544,1.164,3.926,3.523,3.926
		c1.624,0,3.341-0.792,4.01-2.53h-2.43c-0.352,0.488-0.77,0.674-1.311,0.674c-1.042,0-1.494-0.575-1.332-1.639h5.316L89.435,43.992z
		 M84.348,42.757c0.271-0.763,0.942-1.166,1.677-1.166c0.68,0,1.235,0.461,1.253,1.166H84.348z M78.326,40.369
		c-0.684-0.345-1.468-0.472-2.273-0.472c-1.555,0-3.261,0.805-3.538,2.613c-0.203,1.322,0.527,1.727,1.286,1.942
		c0.758,0.216,1.546,0.243,1.458,0.817c-0.062,0.404-0.558,0.561-0.877,0.561c-0.625,0-1.429-0.372-1.885-0.746L71.3,46.91
		c0.776,0.547,1.73,0.85,2.744,0.85c1.652,0,3.483-0.805,3.78-2.747c0.209-1.365-0.592-1.938-1.734-2.185
		c-0.335-0.07-1.116-0.144-1.039-0.647c0.058-0.371,0.577-0.502,0.869-0.502c0.429,0,0.949,0.143,1.304,0.359L78.326,40.369z
		 M71.127,40.142h-2.525l-0.109,0.717c-0.43-0.646-1.242-0.961-2.061-0.961c-2.111,0-3.846,1.812-4.167,3.922
		c-0.324,2.113,0.882,3.941,2.992,3.941c0.833,0,1.758-0.332,2.314-1.066h0.028l-0.125,0.82H70L71.127,40.142z M66.75,42.168
		c1.028,0,1.507,0.763,1.369,1.666c-0.143,0.937-0.85,1.653-1.877,1.653c-1.026,0-1.515-0.717-1.372-1.653
		C65.01,42.931,65.723,42.168,66.75,42.168 M61.598,43.992c0.386-2.515-0.803-4.095-3.274-4.095c-2.318,0-4.17,1.478-4.546,3.937
		c-0.388,2.544,1.164,3.926,3.524,3.926c1.624,0,3.34-0.792,4.01-2.53h-2.43c-0.352,0.488-0.768,0.674-1.311,0.674
		c-1.042,0-1.494-0.575-1.331-1.639h5.315L61.598,43.992z M56.512,42.757c0.269-0.763,0.941-1.166,1.677-1.166
		c0.681,0,1.235,0.461,1.252,1.166H56.512z M48.911,42.168c1.026,0,1.507,0.763,1.369,1.666c-0.144,0.937-0.85,1.653-1.877,1.653
		c-1.027,0-1.516-0.717-1.372-1.653C47.17,42.931,47.883,42.168,48.911,42.168 M49.634,47.515h2.526l1.825-11.931h-2.526
		l-0.808,5.274c-0.428-0.646-1.241-0.961-2.06-0.961c-2.11,0-3.846,1.811-4.168,3.922c-0.324,2.113,0.882,3.94,2.993,3.94
		c0.832,0,1.758-0.333,2.314-1.065h0.027L49.634,47.515z M43.131,35.842c-0.777,0-1.517,0.662-1.641,1.466
		c-0.123,0.805,0.415,1.465,1.192,1.465c0.777,0,1.516-0.66,1.641-1.465C44.446,36.504,43.909,35.842,43.131,35.842 M43.737,40.142
		h-2.526l-1.129,7.373h2.527L43.737,40.142z"/>
	<path fill="#FFFFFF" d="M20.374,0C10.813,0,1.72,8.183,0.216,18.157C-1.297,28.118,5.306,36.3,14.869,36.3
		c9.546,0,18.633-8.182,20.161-18.143C36.53,8.183,29.923,0,20.374,0 M16.004,28.806c-5.612,0-9.489-4.803-8.6-10.651
		c0.881-5.855,6.221-10.66,11.831-10.66c5.608,0,9.487,4.804,8.604,10.66C26.942,24.003,21.607,28.806,16.004,28.806"/>
	<path fill="#FFFFFF" d="M18.3,13.672c-2.358,0-4.602,2.018-4.974,4.48c-0.373,2.457,1.257,4.476,3.616,4.476
		c2.355,0,4.597-2.019,4.974-4.476C22.289,15.69,20.657,13.672,18.3,13.672"/>
	<path fill="#FFFFFF" d="M53.158,3.857c-0.283,1.858-1.98,3.386-3.762,3.386c-1.784,0-3.017-1.528-2.734-3.386
		c0.28-1.86,1.977-3.388,3.761-3.388C52.205,0.47,53.439,1.998,53.158,3.857"/>
	<path fill="#FFFFFF" d="M51.551,12.322h0.062c1.659-1.893,3.466-2.69,5.565-2.69c2.358,0,4.242,0.995,5.079,3.257
		c1.437-2.127,3.806-3.257,6.035-3.257c4.139,0,5.143,2.823,4.549,6.742l-1.649,10.859h-5.795l1.235-8.14
		c0.266-1.756,0.768-4.649-1.681-4.649c-2.675,0-3.17,2.624-3.477,4.649l-1.235,8.14h-5.796l1.236-8.14
		c0.287-1.891,0.725-4.778-1.852-4.778c-2.579,0-3.019,2.888-3.304,4.778l-1.236,8.14h-5.796l2.585-17.037h5.793L51.551,12.322z"/>
	<path fill="#FFFFFF" d="M81.687,18.694c-0.326,2.157,0.791,3.82,3.145,3.82c2.358,0,3.98-1.663,4.307-3.82
		c0.315-2.09-0.785-3.85-3.139-3.85C83.64,14.844,82.003,16.604,81.687,18.694 M82.883,12.086h0.065
		c1.306-1.693,3.398-2.49,5.309-2.49c4.873,0,7.604,4.25,6.86,9.131c-0.743,4.914-4.713,9.03-9.554,9.03
		c-1.876,0-3.713-0.695-4.728-2.189l-1.537,10.129h-5.796l3.876-25.537h5.797L82.883,12.086z"/>
	<path fill="#FFFFFF" d="M102.738,18.693c-0.328,2.157,0.793,3.82,3.148,3.82c2.354,0,3.977-1.664,4.305-3.82
		c0.313-2.089-0.782-3.85-3.142-3.85C104.695,14.844,103.057,16.604,102.738,18.693 M114.505,27.196h-5.797l0.289-1.895h-0.062
		c-1.277,1.693-3.401,2.455-5.31,2.455c-4.841,0-7.606-4.213-6.866-9.097c0.74-4.88,4.719-9.064,9.559-9.064
		c1.88,0,3.742,0.729,4.722,2.226l0.258-1.663h5.791L114.505,27.196z"/>
	<path fill="#FFFFFF" d="M131.805,15.705c-0.761-0.663-1.697-1.194-2.812-1.194c-2.229,0-4.255,1.796-4.609,4.149
		c-0.374,2.457,1.052,4.186,3.438,4.186c1.021,0,2.197-0.436,3.076-1.163l-0.777,5.113c-1.374,0.664-2.82,0.961-4.223,0.961
		c-4.84,0-8.312-3.75-7.53-8.896c0.832-5.48,5.418-9.266,10.542-9.266c1.34,0,2.626,0.334,3.67,0.998L131.805,15.705z"/>
</g>
<polygon fill="#FFFFFF" points="137.007,-0.363 132.822,27.196 138.619,27.196 139.672,20.255 144.958,27.196 153.077,27.196 
	145.773,18.029 155.15,10.16 147.221,10.16 140.271,16.306 142.801,-0.363 "/>
<polygon fill="#FFFFFF" points="160.958,27.196 155.164,27.196 156.997,15.143 155.113,15.143 155.874,10.16 157.75,10.16 
	158.525,5.048 164.318,5.048 163.544,10.16 166.826,10.16 166.068,15.143 162.788,15.143 "/>
<g>
	<path fill="#FFFFFF" d="M172.339,18.694c-0.327,2.156,0.79,3.82,3.146,3.82c2.356,0,3.979-1.664,4.307-3.82
		c0.316-2.09-0.785-3.85-3.141-3.85C174.293,14.844,172.656,16.604,172.339,18.694 M184.104,27.196h-5.795l0.287-1.893h-0.063
		c-1.273,1.691-3.398,2.454-5.308,2.454c-4.838,0-7.606-4.213-6.865-9.097c0.738-4.88,4.721-9.064,9.558-9.064
		c1.88,0,3.743,0.728,4.728,2.225l0.25-1.662h5.797L184.104,27.196z"/>
</g>
</svg>
